<?xml version="1.0" encoding="utf-8"?>
<!-- Generator: Adobe Illustrator 25.1.0, SVG Export Plug-In . SVG Version: 6.00 Build 0)  -->
<svg version="1.1" id="Layer_1" xmlns="http://www.w3.org/2000/svg" xmlns:xlink="http://www.w3.org/1999/xlink" x="0px" y="0px"
	 viewBox="0 0 24 24" style="enable-background:new 0 0 24 24;" xml:space="preserve">
<style type="text/css">
	.st0{fill:#FFFFFF;}
</style>
<path class="st0" d="M17.7,5.9h-3.5c-0.7,0-1.3,0.6-1.3,1.3v3.5c0,0.7,0.6,1.3,1.3,1.3h2.2v1.7c0,1-0.8,1.7-1.7,1.7h-0.2
	c-0.4,0-0.7,0.3-0.7,0.7v1.3c0,0.4,0.3,0.7,0.7,0.7h0.2c2.4,0,4.4-2,4.4-4.4V7.2C19,6.5,18.4,5.9,17.7,5.9z M9.8,5.9H6.3
	C5.6,5.9,5,6.5,5,7.2v3.5C5,11.4,5.6,12,6.3,12h2.2v1.7c0,1-0.8,1.7-1.7,1.7H6.5c-0.4,0-0.7,0.3-0.7,0.7v1.3c0,0.4,0.3,0.7,0.7,0.7
	h0.2c2.4,0,4.4-2,4.4-4.4V7.2C11.1,6.5,10.5,5.9,9.8,5.9z"/>
</svg>
