<?xml version="1.0" encoding="utf-8"?>
<!-- Generator: Adobe Illustrator 25.1.0, SVG Export Plug-In . SVG Version: 6.00 Build 0)  -->
<svg version="1.1" id="Layer_1" xmlns="http://www.w3.org/2000/svg" xmlns:xlink="http://www.w3.org/1999/xlink" x="0px" y="0px"
	 viewBox="0 0 24 24" style="enable-background:new 0 0 24 24;" xml:space="preserve">
<style type="text/css">
	.st0{fill:#FFFFFF;}
</style>
<path class="st0" d="M5.3,12c0-3.7,3-6.7,6.7-6.7s6.7,3,6.7,6.7s-3,6.7-6.7,6.7S5.3,15.7,5.3,12z M9.2,12.8l2-2v4.9
	c0,0.4,0.3,0.6,0.6,0.6h0.4c0.4,0,0.6-0.3,0.6-0.6v-4.9l2,2c0.3,0.3,0.7,0.3,0.9,0l0.3-0.3c0.3-0.3,0.3-0.7,0-0.9L12.5,8
	c-0.3-0.3-0.7-0.3-0.9,0L8,11.6c-0.3,0.3-0.3,0.7,0,0.9l0.3,0.3C8.5,13,8.9,13,9.2,12.8z"/>
</svg>
